<svg id="logo-ru" viewBox="0 0 221.44 37.33">
        <path d="m10.37 26.44a11.05 11.05 0 0 0 5.57 1.56 14.9 14.9 0 0 0 1.64-.13l.59-.14v-3.91l-.85.13a7.59 7.59 0 0 1 -5.05-.85 8 8 0 0 1 -3.74-7.22 12.39 12.39 0 0 1 1.64-6 12.15 12.15 0 0 1 7.48-5.78l.52-.1.83-4-1.61.13a15.45 15.45 0 0 0 -10.7 7.74 15.51 15.51 0 0 0 -2.16 7.88c0 4.66 2.16 8.66 5.84 10.69"></path>
        <path d="m37.4 17.39a15.45 15.45 0 0 0 -7.74-10.7 16.16 16.16 0 0 0 -7.88-2.16 12.05 12.05 0 0 0 -10.78 5.84 11 11 0 0 0 -1.57 5.57 12.8 12.8 0 0 0 .13 1.64l.13.59h3.94l-.13-.85a9 9 0 0 1 -.13-1.38 7.16 7.16 0 0 1 1-3.67 8 8 0 0 1 7.22-3.74 12.35 12.35 0 0 1 11.74 9.12l.13.52 4 .86z"></path>
        <path d="m27 10.89a10.89 10.89 0 0 0 -7.21-1.44l-.6.13v3.94l.86-.13a7.47 7.47 0 0 1 5.05.85 8 8 0 0 1 3.74 7.22 12.42 12.42 0 0 1 -1.64 6 12.17 12.17 0 0 1 -7.48 5.77l-.53.13-.85 4 1.66-.16a15.43 15.43 0 0 0 10.7-7.74 16.15 16.15 0 0 0 2.16-7.87 11.94 11.94 0 0 0 -5.86-10.7"></path>
        <path d="m26.51 27a11.26 11.26 0 0 0 1.49-5.54 16.19 16.19 0 0 0 -.13-1.71l-.14-.59h-3.91l.18.84a11 11 0 0 1 .13 1.51 7.6 7.6 0 0 1 -.92 3.61 8 8 0 0 1 -7.22 3.74 12.35 12.35 0 0 1 -11.79-9.11l-.13-.53-4.07-.85.13 1.63a15.45 15.45 0 0 0 7.74 10.7 16 16 0 0 0 7.88 2.1 12.06 12.06 0 0 0 10.76-5.8"></path>
        <path d="m51.74 11.62h5.9c3.2 0 4.7 1.5 4.7 3.6a3.69 3.69 0 0 1 -1.8 3.1 3.06 3.06 0 0 1 2.6 3.2c0 2.8-2.1 4.1-5.3 4.1h-6v-14zm2.5 2.4v3.6h3.1c1.2 0 2.2-.6 2.2-1.8s-1-1.7-2.4-1.7zm0 5.7v3.5h3.5c1.8 0 2.6-.7 2.6-1.8s-.9-1.7-3.1-1.7z"></path>
        <path d="m70.94 11.62c4.4 0 6.7 2.1 6.7 5.2s-2.3 5.1-6.7 5.1h-2.5v3.7h-2.6v-14zm.3 7.9c2 0 3.5-.8 3.5-2.7s-1.6-2.7-3.5-2.7h-2.8v5.5z"></path>
        <path d="m80.24 25.62v-14h9.6v2.38h-7.1v3.3h5.8v2.4h-5.8v3.4h7.26v2.4z"></path>
        <path d="m96 17.22v8.4h-2.6v-14.2l7.3 7.1 7.3-7.1v14.2h-2.7v-8.4l-4.6 4.6z"></path>
        <path d="m112 25.62v-14h9.6v2.38h-7.1v3.3h5.8v2.4h-5.8v3.4h7.3v2.4z"></path>
        <path d="m125.24 11.62h2.6v5.7h7v-5.7h2.6v13.9h-2.6v-5.8h-7v5.9h-2.6z"></path>
        <path d="m139.24 25.62 7.3-14.3 7.3 14.3h-2.9l-1.1-2.3h-6.6l-1.1 2.3zm7.4-9.3-2.2 4.7h4.5z"></path>
        <path d="m164.94 12.22h9.4v2.4h-6.9v11.5h-2.6z"></path>
        <path d="m175.14 19.12a7.4 7.4 0 1 1 7.5 7.3h-.1a7.06 7.06 0 0 1 -7.39-6.71c-.01-.2-.01-.4-.01-.59zm11.9 0a4.59 4.59 0 0 0 -4.29-4.89h-.31a4.66 4.66 0 0 0 -4.6 4.71v.19a4.61 4.61 0 0 0 4.29 4.87h.31c2.7.12 4.56-2 4.56-4.88z"></path>
        <path d="m190.84 28.22v-4.4h1.6c1.9-3.4 2.3-7.6 2.3-11.6h9.2v11.6h1.9v4.4h-2.3v-2.1h-10.4v2.1zm4.2-4.4h6.5v-9.3h-4.4a23.89 23.89 0 0 1 -2.14 9.3z"></path>
        <path d="m206.84 26.12 7.3-14.3 7.3 14.3h-2.9l-1.1-2.3h-6.6l-1.1 2.3zm7.3-9.2-2.2 4.7h4.5z"></path>
    </svg>