<svg width="166" height="39" viewBox="0 0 166 39" fill="none" xmlns="http://www.w3.org/2000/svg">
<g clip-path="url(#clip0)">
<path d="M61.7738 22.1754C61.7738 26.8164 60.9759 29.932 59.4003 31.5643C57.8277 33.1979 55.1542 34.014 51.4454 34.014C49.2685 34.014 47.4352 33.6067 45.9267 32.7892C44.4166 31.973 43.3595 30.7915 42.7348 29.2878C42.1087 27.7625 41.8072 25.3979 41.8072 22.1956V0.88138H36.7399V22.2187C36.7399 26.1288 37.2364 29.2243 38.2062 31.479C39.1775 33.7353 40.8156 35.4542 43.0799 36.6574C45.3661 37.8389 48.2973 38.4413 51.8765 38.4413C55.5634 38.4413 58.5398 37.7537 60.8244 36.4003C63.0887 35.0237 64.6628 33.2629 65.5467 31.0703C66.4087 28.879 66.8616 25.9353 66.8616 22.2404V0.88138H61.7738V22.1754ZM14.7696 38.2044C17.2276 38.2044 19.3186 37.9892 21.0223 37.5818C22.726 37.173 24.1268 36.5505 25.2699 35.7329C26.3911 34.9168 27.339 33.7569 28.1152 32.2518C28.875 30.7373 29.2665 29.0671 29.2582 27.3754C29.2582 25.2044 28.6321 23.3136 27.3609 21.7247C26.1101 20.1344 24.3001 18.9947 21.9717 18.3303C23.7817 17.4694 25.1403 16.3312 26.046 14.9127C26.9225 13.5686 27.3869 12.0011 27.3827 10.4003C27.3827 8.68138 26.8876 7.04916 25.8727 5.48049C24.8607 3.91182 23.4584 2.75049 21.6688 1.99938C19.8792 1.24827 17.5072 0.861157 14.5541 0.861157H0V38.2044H14.7696ZM5.13144 5.28549H12.8723C15.6535 5.28549 17.6149 5.45882 18.758 5.8026C19.9011 6.14638 20.7849 6.7906 21.3892 7.73671C22.0154 8.68138 22.3153 9.77771 22.3153 11.0012C22.3153 12.3127 21.9921 13.3874 21.3252 14.2685C20.6553 15.1279 19.6856 15.7505 18.3692 16.1376C17.379 16.4164 15.7613 16.5666 13.4766 16.5666H5.13289V5.28693L5.13144 5.28549ZM5.13144 20.9722H14.0809C16.5388 20.9722 18.4362 21.1874 19.7511 21.5947C21.0674 22.0035 22.0809 22.7344 22.8352 23.7657C23.5676 24.797 23.9346 26.0003 23.9346 27.397C23.9346 28.5786 23.6754 29.6316 23.1585 30.5344C22.6401 31.4357 21.9935 32.1233 21.1956 32.6173C20.3991 33.091 19.4278 33.4348 18.2425 33.6284C17.5727 33.7569 16.4092 33.8003 14.7492 33.8003H5.13144V20.9722ZM80.9177 17.2758V4.92149H93.1653C96.0339 4.92149 98.1249 5.48049 99.4617 6.61871C100.798 7.75693 101.445 9.19705 101.445 10.9809C101.445 12.1842 101.1 13.3007 100.411 14.332C99.7209 15.3634 98.7292 16.1159 97.3925 16.5666C96.0761 17.0404 94.2443 17.2758 91.8941 17.2758H80.9177ZM111.061 38.0975L95.1064 21.2293L95.8606 21.1657C99.5694 20.6717 102.329 19.5104 104.098 17.7063C105.866 15.879 106.771 13.6662 106.771 11.0026C106.771 8.93993 106.233 7.06938 105.155 5.37216C104.076 3.67494 102.652 2.49338 100.842 1.82749C99.051 1.1616 96.4212 0.81638 92.9716 0.81638H75.8096V38.1625H80.941V21.573H88.9833L104.83 38.0975H111.063H111.061ZM144.676 29.997C141.851 32.8758 138.336 34.3593 134.196 34.4026C130.381 34.4445 126.952 33.0477 124.019 30.2758C121.066 27.5039 119.535 23.8943 119.491 19.5537C119.449 15.4082 120.851 11.8837 123.654 9.02516C126.457 6.14638 129.949 4.66293 134.067 4.6196C138.186 4.57771 141.722 5.99616 144.547 8.80993C147.392 11.6266 148.836 15.1713 148.88 19.3602C148.902 23.5072 147.5 27.0735 144.676 29.997ZM147.974 5.60905C144.116 1.82749 138.876 -0.0416204 133.53 0.00171297C128.117 0.0450463 123.977 2.02105 120.161 5.84593C116.322 9.66938 114.403 14.267 114.467 19.532C114.533 25.5265 116.733 30.426 121.001 34.079C124.903 37.3868 129.324 39.0422 134.175 38.9988C139.651 38.9353 144.373 36.9795 148.212 33.1777C152.028 29.3947 153.948 24.7537 153.882 19.3602C153.84 14.0099 151.835 9.3906 147.974 5.60905ZM163.455 38.9136C164.132 38.9136 164.782 38.6465 165.262 38.1711C165.741 37.6957 166.01 37.0509 166.01 36.3786C166.01 35.7063 165.741 35.0615 165.262 34.5861C164.782 34.1107 164.132 33.8436 163.455 33.8436C163.119 33.8436 162.787 33.9092 162.477 34.0366C162.167 34.164 161.885 34.3507 161.648 34.5861C161.41 34.8215 161.222 35.1009 161.094 35.4085C160.965 35.7161 160.899 36.0457 160.899 36.3786C160.899 36.7115 160.965 37.0411 161.094 37.3487C161.222 37.6563 161.41 37.9357 161.648 38.1711C161.885 38.4065 162.167 38.5932 162.477 38.7206C162.787 38.848 163.119 38.9136 163.455 38.9136Z" fill="#4F4F4F"/>
</g>
<defs>
<clipPath id="clip0">
<rect width="166" height="39" fill="white"/>
</clipPath>
</defs>
</svg>
