<svg width="166" height="30" viewBox="0 0 166 30" fill="none" xmlns="http://www.w3.org/2000/svg">
<mask id="mask0" mask-type="alpha" maskUnits="userSpaceOnUse" x="0" y="0" width="166" height="30">
<path fill-rule="evenodd" clip-rule="evenodd" d="M0 0H165.112V30H0V0Z" fill="white"/>
</mask>
<g mask="url(#mask0)">
</g>
<mask id="mask1" mask-type="alpha" maskUnits="userSpaceOnUse" x="0" y="0" width="166" height="30">
<path fill-rule="evenodd" clip-rule="evenodd" d="M0 0H165.112V30H0V0Z" fill="white"/>
</mask>
<g mask="url(#mask1)">
</g>
<mask id="mask2" mask-type="alpha" maskUnits="userSpaceOnUse" x="0" y="0" width="166" height="30">
<path fill-rule="evenodd" clip-rule="evenodd" d="M0 0H165.112V30H0V0Z" fill="white"/>
</mask>
<g mask="url(#mask2)">
</g>
<mask id="mask3" mask-type="alpha" maskUnits="userSpaceOnUse" x="0" y="0" width="166" height="30">
<path fill-rule="evenodd" clip-rule="evenodd" d="M0 0H165.112V30H0V0Z" fill="white"/>
</mask>
<g mask="url(#mask3)">
</g>
<mask id="mask4" mask-type="alpha" maskUnits="userSpaceOnUse" x="0" y="0" width="166" height="30">
<path fill-rule="evenodd" clip-rule="evenodd" d="M0 0H165.112V30H0V0Z" fill="white"/>
</mask>
<g mask="url(#mask4)">
</g>
<mask id="mask5" mask-type="alpha" maskUnits="userSpaceOnUse" x="0" y="0" width="166" height="30">
<path fill-rule="evenodd" clip-rule="evenodd" d="M0 0H165.112V30H0V0Z" fill="white"/>
</mask>
<g mask="url(#mask5)">
<path d="M9.67593 11.0294C9.67593 6.2647 9.05455 4.5 7.72299 4.5C6.65775 4.5 5.50375 5.20588 5.50375 15C5.50375 24.5294 6.03636 25.5 7.72299 25.5C9.49839 25.5 9.85347 22.853 9.94224 18.6177L14.3807 18.7941C14.3807 23.8236 13.6706 29.9117 7.45669 29.9117C1.86417 30 0 24.5294 0 15C0 3.97059 3.37326 0 7.54545 0C13.6706 0 14.3807 5.55883 14.3807 10.8529L9.67593 11.0294Z" fill="#4F4F4F"/>
<path fill-rule="evenodd" clip-rule="evenodd" d="M29.4719 15C29.4719 3.61764 26.4537 0 21.7488 0C17.0441 0 14.0259 3.61764 14.0259 15C14.0259 26.3823 17.0441 30 21.7488 30C26.4537 30 29.4719 26.3823 29.4719 15ZM21.7488 25.5C20.506 25.5 19.7959 24.2647 19.7959 18V11.9117C19.7959 5.64707 20.506 4.41178 21.7488 4.41178C22.9916 4.41178 23.7018 5.64707 23.7018 11.9117V18C23.7018 24.2647 22.9916 25.5 21.7488 25.5Z" fill="#4F4F4F"/>
<path d="M33.9101 21.0883C33.9101 22.6764 33.9101 25.5883 36.2182 25.5883C37.9936 25.5883 38.615 24 38.615 22.7647C38.615 17.647 29.0278 16.4117 29.0278 7.85294C28.9391 3.52941 31.3359 0 35.7743 0C40.5679 0 42.3433 3.61764 42.5209 8.82353H37.816C37.816 7.2353 37.816 4.5 35.6855 4.5C34.4427 4.5 33.7326 5.55883 33.7326 7.14706C33.7326 12.0883 43.3198 13.6764 43.3198 22.147C43.3198 26.5588 40.8342 30.0883 36.0406 30.0883C30.3594 30.0883 29.2054 25.147 29.2054 21.1764H33.9101V21.0883Z" fill="#4F4F4F"/>
<path d="M54.5933 0.529297L52.1078 15.3529H52.019L49.711 0.529297H42.6094V29.4705H46.5153V8.294H46.6041L50.1548 29.4705H53.0842L56.7238 8.294H56.8126V29.4705H61.5174V0.529297H54.5933Z" fill="#4F4F4F"/>
<path fill-rule="evenodd" clip-rule="evenodd" d="M76.9636 15C76.9636 3.61764 73.9454 0 69.2406 0C64.5358 0 61.5176 3.61764 61.5176 15C61.5176 26.3823 64.5358 30 69.2406 30C73.9454 30 76.9636 26.3823 76.9636 15ZM69.2406 25.5C67.9978 25.5 67.2878 24.2647 67.2878 18V11.9117C67.2878 5.64707 67.9978 4.41178 69.2406 4.41178C70.4834 4.41178 71.1936 5.64707 71.1936 11.9117V18C71.1936 24.2647 70.4834 25.5 69.2406 25.5Z" fill="#4F4F4F"/>
<path fill-rule="evenodd" clip-rule="evenodd" d="M82.2897 0.529297H76.9634V29.3823H82.2897V17.8234H84.4202C89.3912 17.8234 91.4329 14.3823 91.4329 9.17636C91.4329 2.91165 88.2372 0.529297 82.2897 0.529297ZM82.7336 13.6763H82.2897V5.02928H82.7336C84.509 5.02928 86.1068 5.20575 86.1068 9.35282C86.1068 12.794 84.8641 13.6763 82.7336 13.6763Z" fill="#4F4F4F"/>
<path fill-rule="evenodd" clip-rule="evenodd" d="M106.524 15C106.524 3.61764 103.506 0 98.8011 0C94.0963 0 91.0781 3.61764 91.0781 15C91.0781 26.3823 94.0963 30 98.8011 30C103.506 30 106.524 26.3823 106.524 15ZM98.8011 25.5C97.5584 25.5 96.8482 24.2647 96.8482 18V11.9117C96.8482 5.64707 97.5584 4.41178 98.8011 4.41178C100.044 4.41178 100.754 5.64707 100.754 11.9117V18C100.754 24.2647 100.044 25.5 98.8011 25.5Z" fill="#4F4F4F"/>
<path d="M106.524 0.529297V29.4705H118.597V24.9705H111.761V0.529297H106.524Z" fill="#4F4F4F"/>
<path d="M118.774 0.529297H124.1V29.3823H118.774V0.529297Z" fill="#4F4F4F"/>
<path d="M124.366 0.529297V5.0293H128.893V29.4705H134.221V5.0293H138.748V0.529297H124.366Z" fill="#4F4F4F"/>
<path fill-rule="evenodd" clip-rule="evenodd" d="M135.463 29.3823L139.547 0.529297H147.18L150.731 29.3823H145.671L144.873 22.941H140.611L139.902 29.3823H135.463ZM144.429 18.794L142.831 5.02928L141.144 18.794H144.429Z" fill="#4F4F4F"/>
<path d="M160.851 0.529297V15.794H160.762L155.969 0.529297H150.731V29.4705H155.258V11.9999H155.348L161.029 29.4705H165.111V0.529297H160.851Z" fill="#4F4F4F"/>
</g>
</svg>
