<svg width="167" height="60" viewBox="0 0 167 60" fill="none" xmlns="http://www.w3.org/2000/svg">
<g clip-path="url(#clip0)">
<path d="M12.8706 57.1579H10.65V29.5715H11.6244C15.4085 29.5715 17.4025 33.564 17.4025 39.6542H18.037V18.4061H17.4025C17.4025 23.594 15.6351 28.8948 11.6244 28.8948H10.65V2.34592H13.5051C17.969 2.34592 22.8861 5.93239 22.8861 15.5189H23.5206V1.60156H0.158691V2.34592H3.87484V57.1579H0.158691V57.9023H23.6339V43.1955H22.9994C22.9994 53.5715 17.6744 57.1579 12.8706 57.1579ZM61.0672 57.1579H58.3254V2.34592H62.5628V1.60156H47.3356V2.34592H51.5729V57.1128H47.3356V57.8572H71.6039V43.0828H70.8561C70.6975 52.8271 66.6188 57.1579 61.0672 57.1579ZM111.281 57.1579H108.539V2.34592H112.776V1.60156H97.5489V2.34592H101.786V57.1128H97.5489V57.8572H121.817V43.0828H121.069C120.888 52.8271 116.832 57.1579 111.281 57.1579ZM166.456 43.1955V43.1279C166.456 53.5038 161.131 57.0903 156.327 57.0903H154.084V29.5715H155.059C158.843 29.5715 160.837 33.564 160.837 39.6542H161.471V18.4061H160.837C160.837 23.594 159.069 28.8948 155.059 28.8948H154.084V2.34592H156.939C161.471 2.34592 166.32 5.93239 166.32 15.5189H166.955V1.60156H143.616V2.34592H147.332V57.1579H143.616V57.9023H167.091V43.1955H166.456Z" fill="#4F4F4F"/>
</g>
<defs>
<clipPath id="clip0">
<rect width="167" height="60" fill="white"/>
</clipPath>
</defs>
</svg>
