<svg width="168" height="38" viewBox="0 0 168 38" fill="none" xmlns="http://www.w3.org/2000/svg">
<path d="M16.7865 13.5417H22.9036C22.9036 13.5417 24.0653 -0.572299 12.3739 0.0315321C12.3739 0.0315321 0.837432 -0.3464 0.0634499 17.165C0.0634499 17.165 -1.4814 37.6055 10.6745 37.9828C10.6745 37.9828 16.8648 38.5241 19.1097 33.3167L20.1162 37.4173H23.291L23.2913 18.1459H12.1414V23.8069H16.6325C16.6325 23.8069 16.7313 24.3534 16.7313 25.7848C16.7313 29.4415 14.9446 32.0505 12.1414 31.7624C10.0828 31.5512 7.57292 29.2177 7.57292 18.9756C7.57292 18.9756 6.96633 6.44441 12.7608 6.44441C12.7608 6.44441 17.4065 6.14525 16.7865 13.5417ZM32.1215 0.585095H24.5301V37.4179H39.3953V30.7758H32.1172L32.1215 0.585095ZM56.9738 0.584482H49.0254L40.1472 37.4179H46.7496L48.5837 29.3661H56.4286L57.9002 37.4179H65.4112L56.9738 0.584482ZM49.5126 23.6303L52.5063 9.74249L55.5776 23.58L49.5126 23.6303Z" fill="#4F4F4F"/>
<path d="M64.9463 37.4161V0.583295H76.1729L80.4316 24.9367L85.5415 0.583295H95.8398V37.4161H88.3291V11.0492L82.2117 37.4161H77.5663L71.4499 10.9738V37.4161H64.9463ZM120.383 18.9609C120.383 37.3971 110.5 37.9841 108.615 37.9841C106.729 37.9841 96.8457 37.4277 96.8457 18.9919C96.8457 0.556015 106.724 0 108.615 0C110.5 0 120.383 0.524751 120.383 18.9609ZM105.11 14.1143C105.11 14.1143 105.072 17.729 105.072 19.1844C105.072 20.6397 105.11 24.0803 105.11 24.0803C105.11 28.1477 106.039 31.7533 108.593 31.7533C111.149 31.7533 112.076 28.1477 112.076 24.0803C112.076 24.0803 112.115 20.6394 112.115 19.1844C112.115 17.7293 112.076 14.1143 112.076 14.1143C112.076 10.0472 111.149 6.44138 108.593 6.44138C106.039 6.44169 105.11 10.0475 105.11 14.1143ZM133.699 38C144.28 38 144.306 29.6601 144.306 25.0179V0.582375H137.028V27.6769C137.028 29.318 136.79 31.7533 133.388 31.7533H132.771C129.369 31.7533 129.132 29.318 129.132 27.6769V0.582375H121.853V25.0176C121.853 29.6598 121.88 37.9997 132.461 37.9997H133.699V38ZM162.58 21.6916C167.576 18.3583 167.613 14.6271 167.613 10.8981C167.613 3.2095 162.338 0.583602 157.005 0.583602H146.011V37.4161H153.367V23.2766H155.999L160.257 37.4158H168L162.58 21.6916ZM153.367 17.0118V6.44536C156.037 6.03678 160.025 6.12352 160.025 12.0395C160.025 14.8435 158.778 17.8109 153.367 17.0118Z" fill="#4F4F4F"/>
</svg>
