<svg width="173" height="57" viewBox="0 0 173 57" fill="none" xmlns="http://www.w3.org/2000/svg">
<path d="M21.038 3.60461C21.0398 3.59588 21.3045 3.60809 21.3045 3.60809L22.0131 20.7587L21.7746 20.7738C21.2795 18.8283 19.947 3.74419 14.7469 3.74419C10.7511 3.74419 9.40877 22.2396 9.40877 28.4362C9.40877 36.4616 10.396 53.301 14.8816 53.301C17.0446 53.301 18.2186 49.5879 18.2186 44.6882V29.0412H15.8184V28.4258H25.5057V29.0412H23.0746V53.5611C23.0688 53.5587 22.7972 53.5685 22.7954 53.5633C22.4443 52.5432 22.3939 50.4434 20.8175 50.4434C19.0695 50.4434 17.1967 54.0711 14.7679 54.0635C6.73445 54.038 3.93652 39.1645 3.93652 28.4403C3.93652 19.557 7.1732 3.22363 14.7609 3.22363C16.0324 3.22363 16.9268 3.55284 17.9418 5.02379C18.6852 6.10213 20.0927 6.34817 20.6939 4.96621C20.8756 4.54976 20.9597 4.01291 21.038 3.60461Z" fill="#4F4F4F"/>
<path d="M130.015 52.6618V4.50093H127.866V3.91406H137.017V4.50093H134.858L134.873 52.6618H137.017V53.2574H127.866V52.6618H130.015V4.50093V52.6618Z" fill="#4F4F4F"/>
<path d="M103.447 52.6591H109.182C111.872 52.5527 115.166 50.0355 115.166 43.0151C115.166 41.675 115.182 40.2756 115.182 38.8745L115.693 38.8768V53.2477L98.3213 53.2582L110.114 4.50462H104.614C101.136 4.50462 99.2162 9.78004 99.2162 14.6326C99.2162 15.8761 99.1791 18.2858 99.1791 18.2858L98.6939 18.2917V3.91602H115.57L103.447 52.6591Z" fill="#4F4F4F"/>
<path d="M38.2409 3.91895L48.4761 3.92244C53.3756 3.92244 56.5531 9.37931 56.5531 15.9314C56.5531 22.4614 53.8799 28.5464 49.7587 28.5464C49.208 28.5464 49.2586 28.8779 49.7587 28.8779C52.2282 28.8779 54.0825 31.7088 54.4568 32.462C55.9669 35.5051 54.9269 49.5126 56.4371 50.8956C57.7121 52.0641 58.6482 50.2385 58.8147 49.9546L58.9703 50.068C58.9459 50.1972 57.8531 53.8091 55.097 53.8091C52.8063 53.8091 51.6467 50.9887 51.3183 49.2224C50.782 46.3455 50.9566 37.5455 50.6648 35.7756C50.41 34.233 49.7176 29.6277 47.5563 29.2246C46.5923 29.0449 46.2888 29.0449 45.2087 29.0518C45.2029 29.0518 45.2105 52.6545 45.2105 52.6545H47.3694V53.2606H37.9473V52.6545H40.3667L40.358 4.5128H38.2409V3.91895ZM45.207 4.5128V28.4371C46.2035 28.4313 47.8541 28.5447 49.5678 26.3293C51.1609 24.2703 51.7918 19.0804 51.7918 15.212C51.7918 11.0852 49.731 4.50174 47.0844 4.50174L45.207 4.5128Z" fill="#4F4F4F"/>
<path d="M69.4758 52.6525L78.7314 3.22363L87.2859 52.6543L89.2313 52.6595V53.2568L80.332 53.2563V52.6502H82.2803L79.8584 38.8649H72.7694L70.2552 52.6624H72.7548V53.2534H67.3662V52.6677L69.4758 52.6525ZM72.9033 38.2362H79.7708L76.4616 18.9376L72.9033 38.2362Z" fill="#4F4F4F"/>
<path d="M148.145 52.6531L157.401 3.22363L165.956 52.6543L167.901 52.6601V53.2568L159.001 53.2563V52.6496H160.949L158.527 38.8643H151.438L148.924 52.6619H151.424V53.2521H146.035V52.6664L148.145 52.6531ZM151.572 38.2362H158.44L155.132 18.9376L151.572 38.2362Z" fill="#4F4F4F"/>
</svg>
