<svg width="166" height="42" viewBox="0 0 166 42" fill="none" xmlns="http://www.w3.org/2000/svg">
<path d="M12.2491 20.5471H9.00125V40.745H12.8291C16.802 40.745 19.0638 37.0198 19.1508 31.0827C19.2089 24.0978 16.483 20.5471 12.2491 20.5471ZM11.2922 1.74622H8.97226V19.9069H12.6551C15.787 19.9069 18.3388 16.589 18.3388 10.7683C18.3388 4.36555 15.497 1.74622 11.2922 1.74622ZM13.9891 41.0943H0.0696162C0.0246885 41.0416 0 40.9745 0 40.9052C0 40.8358 0.0246885 40.7687 0.0696162 40.7159H4.12945V1.74622H0.0696162V1.28056H11.9591C17.005 1.28056 23.2687 2.27009 23.5586 10.5355C23.7327 18.6845 16.8889 20.1979 13.6991 20.1979C18.7449 20.1979 24.9216 23.9814 24.9216 30.6753C24.9216 36.0594 20.4558 41.0943 13.9021 41.0943H13.9891ZM35.3902 8.8766L30.0544 28.9582H40.088L35.3902 8.8766ZM39.218 41.0361V40.745H43.5679L40.378 29.3947H29.9384L27.7055 37.5437C27.2126 39.5809 27.0095 40.745 27.0095 40.745H31.1854V41.0361H22.5727V40.745H26.5455L27.2995 37.5437L37.2751 0L48.7877 40.745H52.7894V41.0361H39.218ZM55.6313 41.0361L72.5667 1.45519H64.4469C58.4153 1.51339 56.7334 8.90571 56.6173 16.7637V20.7218C56.4732 20.7446 56.3265 20.7446 56.1824 20.7218V1.01863H77.7575L61.0251 40.745H68.5648C75.7275 40.5413 77.0904 35.3027 77.3225 20.7509H77.7575V41.0361H55.7184H55.6313ZM163.478 41.5017C162.695 41.8575 161.842 42.0269 160.984 41.9965C156.924 41.9965 155.474 38.9697 155.648 31.0244V27.3574C155.648 22.4098 153.271 20.6636 149.471 20.6636H145.847L145.759 40.745H150.573V41.0361H137.002V40.745H141.004L140.945 1.45519H137.002V0.989524H149.761C155.997 0.989524 161.129 2.73574 161.129 10.8266C161.129 17.695 155.619 20.3143 151.269 20.3143C157.65 20.3143 161.419 22.9919 160.723 31.1409L160.578 36.234C160.578 39.1444 160.954 41.2398 162.607 41.2398C162.859 41.253 163.11 41.2132 163.345 41.1229C163.58 41.0327 163.793 40.8941 163.97 40.7159C164.293 40.2933 164.493 39.79 164.551 39.2608C164.632 38.8391 164.661 38.409 164.639 37.9802V32.1013C164.735 32.1107 164.831 32.1107 164.927 32.1013V35.7974C164.986 39.0571 164.986 39.4645 164.725 40.1048C164.486 40.7033 164.044 41.1981 163.478 41.5017ZM148.775 1.45519H145.876V20.0234H149.5C153.56 20.0234 155.591 17.4622 155.88 11.0594C156.17 3.9872 152.691 1.45519 148.775 1.45519ZM92.2858 8.8766L86.9791 28.9582H97.0416L92.2858 8.8766ZM96.1718 41.0361V40.745H100.522L97.3317 29.3947H86.8921L84.6592 37.5437C84.1662 39.5809 83.9342 40.745 83.9342 40.745H88.1971V41.0361H79.5264V40.745H83.4993L84.2532 37.5437L94.2287 0L105.712 40.745H109.685V41.0361H96.1427H96.1718Z" fill="#4F4F4F"/>
<path d="M120.357 8.90571L114.993 28.929H125.055L120.357 8.90571ZM124.127 41.0652V40.7742H128.477L125.287 29.4238H114.848L112.644 37.5728C112.151 39.6101 111.919 40.7742 111.919 40.7742H116.153V41.0652H107.54V40.7742H111.513L112.267 37.5728L122.213 0L133.755 40.745H137.728V41.0943H124.185L124.127 41.0652Z" fill="#4F4F4F"/>
<path d="M99.535 3.05484V5.00479H100.115V5.17941H98.1431V5.00479H98.723V1.04669H98.1431V0.87207H100.173V1.04669H99.535V2.90933H101.13V1.01759H100.55V0.87207H102.522V1.04669H101.942V5.00479H102.522V5.17941H100.55V5.00479H101.13V3.05484H99.535Z" fill="#4F4F4F"/>
<path d="M104.32 3.90065C103.943 3.90065 103.45 3.90065 103.45 4.48273C103.45 4.77376 103.566 4.94838 103.856 4.94838C103.95 4.93553 104.039 4.89574 104.111 4.83381C104.183 4.77186 104.235 4.69038 104.262 4.59914C104.303 4.48734 104.323 4.36891 104.32 4.2499V3.90065ZM104.32 2.94024C104.32 2.82381 104.03 2.76562 103.915 2.76562C103.74 2.76562 103.45 2.88203 103.537 2.99844C103.592 3.08601 103.622 3.18644 103.625 3.28948C103.625 3.36666 103.594 3.4407 103.54 3.49527C103.485 3.54985 103.411 3.58051 103.334 3.58051C103.258 3.58051 103.184 3.54985 103.129 3.49527C103.075 3.4407 103.044 3.36666 103.044 3.28948C103.044 2.82381 103.625 2.64919 103.972 2.64919C104.244 2.64201 104.513 2.70199 104.755 2.82381C104.823 2.85877 104.879 2.91369 104.916 2.98126C104.952 3.04884 104.967 3.12588 104.958 3.20216V4.89017C104.958 4.90825 104.961 4.92622 104.969 4.94264C104.977 4.95907 104.988 4.9735 105.002 4.9848C105.016 4.9961 105.032 5.00395 105.05 5.00773C105.068 5.01151 105.086 5.01112 105.103 5.0066C105.185 4.98067 105.256 4.92976 105.306 4.86108V4.94838C105.247 5.05128 105.163 5.13736 105.062 5.19847C104.96 5.25958 104.845 5.29371 104.726 5.29763C104.609 5.29021 104.498 5.2379 104.417 5.15136C104.336 5.06482 104.291 4.95058 104.291 4.83197C104.189 4.96895 104.059 5.08171 103.908 5.16218C103.758 5.24266 103.592 5.28891 103.422 5.29763C103.335 5.3068 103.248 5.29654 103.167 5.2676C103.085 5.23866 103.011 5.19179 102.95 5.1304C102.889 5.06901 102.842 4.99467 102.813 4.91281C102.785 4.83097 102.774 4.74368 102.783 4.65735C102.783 3.90065 103.74 3.72603 104.291 3.78424V2.91113L104.32 2.94024ZM106.611 3.31857C106.785 2.96934 107.017 2.59099 107.481 2.59099C107.587 2.59004 107.69 2.62797 107.77 2.69763C107.85 2.7673 107.902 2.86391 107.916 2.96934C107.922 3.02291 107.914 3.07698 107.895 3.12732C107.876 3.17766 107.846 3.22291 107.807 3.25954C107.768 3.29617 107.72 3.32318 107.669 3.33847C107.617 3.35377 107.563 3.35692 107.51 3.34768C107.433 3.34768 107.36 3.31702 107.305 3.26245C107.251 3.20786 107.22 3.13383 107.22 3.05665C107.216 3.01794 107.216 2.97895 107.22 2.94024V2.82381C107.164 2.82264 107.108 2.83527 107.057 2.86062C107.007 2.88596 106.963 2.92328 106.93 2.96934C106.698 3.20216 106.553 3.55141 106.553 4.42452V5.0066H107.133V5.12301H105.538V4.97749H105.886V2.79472H105.509V2.6201H106.553V3.31857H106.611ZM110.265 3.28948C110.265 2.94024 110.149 2.7074 109.772 2.7074C109.395 2.7074 109.105 3.20216 109.105 3.4932V4.279C109.105 4.71555 109.395 5.15211 109.772 5.15211C109.839 5.16187 109.908 5.15581 109.972 5.1344C110.036 5.11298 110.094 5.07682 110.142 5.02877C110.19 4.98074 110.226 4.92213 110.247 4.85766C110.269 4.79318 110.275 4.72458 110.265 4.65735V3.28948ZM109.105 3.11486C109.165 2.97391 109.261 2.8513 109.383 2.75934C109.506 2.66739 109.65 2.60932 109.801 2.59099C110.468 2.59099 110.961 3.23127 110.961 3.90065C110.961 4.57003 110.468 5.23942 109.801 5.23942C109.651 5.2477 109.501 5.21053 109.372 5.13272C109.243 5.05491 109.14 4.94001 109.076 4.80287V6.54909H109.453V6.6655H107.945V6.49088H108.409V2.79472H107.945V2.6201H109.105V3.11486ZM112.875 3.58051C112.875 3.17306 112.962 2.7074 112.411 2.7074C111.86 2.7074 111.976 3.20216 111.976 3.58051H112.846H112.875ZM112.005 3.75514V4.2499C112.005 4.68646 112.005 5.12301 112.498 5.12301C112.709 5.10712 112.909 5.02135 113.067 4.87915C113.224 4.73694 113.33 4.54635 113.368 4.33721H113.542C113.487 4.59894 113.339 4.83165 113.125 4.9922C112.912 5.15274 112.648 5.23023 112.382 5.21031C111.715 5.21031 111.222 4.57003 111.222 3.90065C111.214 3.55816 111.34 3.22619 111.573 2.97592C111.806 2.72566 112.128 2.57702 112.469 2.56189C112.606 2.55801 112.743 2.58129 112.871 2.63039C112.999 2.6795 113.116 2.75346 113.216 2.84806C113.316 2.94266 113.396 3.05603 113.452 3.18171C113.507 3.30739 113.538 3.44291 113.542 3.58051C113.542 3.72603 113.484 3.69692 113.397 3.69692H111.947L112.005 3.75514ZM114.789 3.31857C114.992 2.96934 115.195 2.59099 115.659 2.59099C115.77 2.58259 115.88 2.61713 115.966 2.6875C116.052 2.75786 116.108 2.8587 116.123 2.96934C116.127 3.02014 116.121 3.07131 116.103 3.11921C116.086 3.16714 116.058 3.21066 116.022 3.24673C115.986 3.28278 115.943 3.31051 115.895 3.32795C115.848 3.3454 115.797 3.35213 115.746 3.34768C115.669 3.34768 115.595 3.31702 115.541 3.26245C115.487 3.20786 115.456 3.13383 115.456 3.05665C115.452 3.01792 115.452 2.97896 115.456 2.94024C115.456 2.85292 115.456 2.82381 115.398 2.82381C115.341 2.82264 115.286 2.83527 115.235 2.86062C115.185 2.88596 115.141 2.92328 115.108 2.96934C114.905 3.20216 114.76 3.55141 114.76 4.42452V5.0066H115.34V5.12301H113.745V4.97749H114.122V2.79472H113.745V2.6201H114.789V3.31857ZM117.225 2.03802C117.216 2.26055 117.154 2.47762 117.042 2.67036C116.931 2.8631 116.775 3.02567 116.587 3.14397C116.573 3.14878 116.559 3.15018 116.545 3.14801C116.531 3.14584 116.517 3.14019 116.506 3.13155C116.494 3.1229 116.485 3.11153 116.479 3.09847C116.473 3.0854 116.47 3.07103 116.471 3.05665C116.504 3.02079 116.543 2.99123 116.587 2.96934C116.719 2.8631 116.829 2.73088 116.909 2.58076C116.988 2.43064 117.037 2.26577 117.051 2.09623C117.051 2.05104 117.04 2.00648 117.02 1.96608C117 1.92566 116.971 1.8905 116.935 1.8634C116.921 1.86256 116.906 1.8653 116.893 1.87138C116.88 1.87744 116.869 1.88665 116.86 1.89818C116.852 1.9097 116.846 1.92319 116.844 1.93743C116.842 1.95168 116.843 1.96624 116.848 1.97981C116.834 2.04655 116.798 2.10638 116.745 2.14893C116.692 2.19146 116.626 2.21402 116.558 2.21264C116.506 2.2128 116.454 2.20213 116.407 2.18133C116.359 2.16052 116.316 2.13002 116.281 2.09174C116.245 2.05346 116.218 2.00824 116.201 1.95894C116.184 1.90961 116.177 1.85727 116.181 1.80519C116.176 1.74402 116.185 1.68252 116.207 1.62525C116.229 1.56797 116.263 1.51644 116.308 1.47445C116.353 1.43248 116.406 1.40116 116.464 1.38284C116.523 1.36452 116.584 1.35966 116.645 1.36864C116.732 1.36687 116.818 1.38477 116.897 1.421C116.976 1.45723 117.047 1.51088 117.102 1.57795C117.158 1.64504 117.198 1.72383 117.219 1.80851C117.24 1.89319 117.242 1.98157 117.225 2.06713V2.03802ZM117.341 5.18122H117.254V4.2499H117.428C117.515 4.71555 117.718 5.12301 118.211 5.12301C118.282 5.13104 118.354 5.12442 118.422 5.10355C118.49 5.08266 118.553 5.04797 118.608 5.00161C118.662 4.95524 118.706 4.89819 118.738 4.83398C118.769 4.76976 118.787 4.69974 118.791 4.62825C118.791 4.279 118.501 4.22079 118.211 4.19168C117.544 4.10438 117.341 3.84244 117.341 3.31857C117.337 3.22062 117.353 3.12285 117.388 3.0312C117.422 2.93954 117.475 2.85586 117.543 2.78517C117.61 2.7145 117.692 2.65829 117.782 2.61992C117.871 2.58154 117.968 2.5618 118.066 2.56189C118.273 2.55556 118.476 2.61684 118.646 2.73651L118.762 2.56189H118.878V3.31857H118.704C118.697 3.14805 118.629 2.98581 118.511 2.86248C118.394 2.73917 118.235 2.66329 118.066 2.64919C118.005 2.64526 117.944 2.65343 117.886 2.67326C117.828 2.69308 117.775 2.72416 117.729 2.76472C117.683 2.80528 117.646 2.85452 117.619 2.90961C117.592 2.9647 117.577 3.02456 117.573 3.08575C117.573 3.28948 117.631 3.37679 118.153 3.4641C118.675 3.55141 119.023 3.66782 119.023 4.33721C119.023 4.91928 118.733 5.21031 118.153 5.21031C117.932 5.184 117.727 5.08108 117.573 4.91928L117.341 5.18122Z" fill="#4F4F4F"/>
</svg>
