<svg width="168" height="39" viewBox="0 0 168 39" fill="none" xmlns="http://www.w3.org/2000/svg">
<path fill-rule="evenodd" clip-rule="evenodd" d="M40.0397 27.4908L43.2418 22.5573C44.8235 23.8929 50.1039 27.0262 59.2858 27.0262C64.7683 27.0262 69.2141 25.4356 69.2613 22.0977C69.2613 20.397 67.6819 19.4212 64.9192 18.9081C62.3005 18.3965 59.2378 18.4455 57.5079 18.3449C52.0293 18.0337 41.2215 17.8287 41.2215 9.76032C41.2219 2.82827 48.773 0 57.5079 0C65.4619 0 70.7439 1.95076 74.7902 4.82721L71.5308 9.55424C68.5208 7.19053 63.6855 5.34453 57.6108 5.34453C53.2637 5.34453 47.6377 6.57418 47.6377 9.40397C47.6377 12.2292 55.7888 12.2804 57.6108 12.3821C63.8795 12.6918 75.4823 12.7415 75.4312 21.9945C75.4312 28.8252 68.8134 32.474 59.3385 32.474C52.0293 32.474 45.4165 31.1354 40.0397 27.4908ZM87.3329 32.474C82.2422 32.4224 79.6835 30.3141 79.6835 24.8659V12.9484H75.8292V7.60691H79.6835V1.59059H85.8538V7.60653H93.1564V12.9484H85.8538V24.6082C85.8538 26.2023 86.3439 27.0266 88.4199 26.9781C90.5899 26.9781 93.1564 25.9992 93.1564 25.9992L94.5848 31.2891C94.5848 31.2891 90.1436 32.4228 87.3782 32.4228L87.3329 32.4744V32.474ZM103.027 39L107.722 30.9324L95.1809 7.60653H102.441L111.179 24.6079L120.211 7.60653H127.024L109.845 39H103.028H103.027ZM129 31.7032V0.666441H135.222V31.7032H129ZM144.206 22.0977C145.099 25.2758 148.998 26.8198 152.601 26.8198C159.461 26.8198 162.22 24.973 163.905 23.6321L167.017 28.1087C163.362 30.8303 159.704 32.4224 152.601 32.474C143.023 32.474 137.488 27.0262 137.488 19.6778C137.488 12.0728 143.656 6.98597 152.547 7.03568C161.433 7.03568 167.949 11.5092 168 22.1463H144.252L144.206 22.0977ZM144.206 17.0059H160.84C160.002 14.2327 156.548 12.4854 152.499 12.4854C148.351 12.4854 145.045 14.1792 144.206 17.0059ZM0 31.7502V1.02432H6.51097V31.7502H0ZM30.7579 19.318C30.7579 14.2327 29.6683 12.6918 24.3333 12.6918C19.644 12.6918 16.2391 14.8491 15.6972 15.3652V31.7502H9.52645V7.70976H15.4986V9.40397C16.9808 8.57962 19.9889 7.08729 24.5814 7.08729C33.5148 7.08729 36.9701 10.1767 37.0254 17.4189V31.7506H30.7045L30.7579 19.3184V19.318Z" fill="#4F4F4F"/>
</svg>
