<svg width="168" height="46" viewBox="0 0 168 46" fill="none" xmlns="http://www.w3.org/2000/svg">
<path d="M166.011 45.2385L157.672 16.4783C160.227 15.6565 162.777 14.1062 164.096 12.0054C165.655 9.52376 165.904 5.82053 163.135 3.4841C160.558 1.30928 156.151 1.39967 154.189 1.39967H144.159V2.15839H146.099V45.2385H144.184V46H154.211V45.2385H152.296V2.15839H154.189C159.904 2.1803 161.85 9.40598 159.037 13.2955C156.695 16.5358 152.391 17.2233 152.391 17.2233L159.88 45.2385H157.863V46H167.986V45.2385H166.011ZM129.232 1.39145H115.703V2.15291H117.621V45.2358H115.703V46H130.668V36.6433H129.905V45.2358H123.823V18.1847H127.289V23.5889H128.053V12.03H127.289V17.4205H123.823V2.15291H129.905V10.7454H130.668V1.39145H129.232ZM87.5116 1.39145V2.15291H89.4212V45.2358H87.5088V46H102.474V36.6433H101.714V45.2358H95.6236V2.15291H97.5388V1.39145H87.5116ZM56.2453 1.39145V10.7454H57.0059V2.18304H61.3095V45.2358H59.3971V46H69.4243V45.2358H67.5119V2.18304H71.8183V10.7454H72.5788V1.39145H56.2453ZM33.2197 17.8944L35.0966 29.204H31.2225L33.2197 17.8944ZM27.6466 45.2358H25.7178V46H30.4154V45.2385H28.4072L31.0747 29.9709H35.2224L37.7559 45.2358H35.6766V46H45.7038V45.2358H43.95L35.89 0H35.5234L27.6466 45.2358ZM0 1.39145V10.7454H0.760589V2.18304H5.06695V45.2358H3.1518V46H13.179V45.2358H11.2666V2.18304H15.5729V10.7454H16.3335V1.39145H0Z" fill="#4F4F4F"/>
</svg>
