<svg width="167" height="44" viewBox="0 0 167 44" fill="none" xmlns="http://www.w3.org/2000/svg">
<path d="M66.5271 15.7399C66.7132 16.4453 68.8177 25.0425 65.1337 32.9352C64.774 33.7049 60.5932 43.793 49.237 43.824C37.8808 43.793 33.7 33.7049 33.3403 32.9352C29.6555 25.0425 31.7608 16.4453 31.9469 15.74C36.4705 0.134288 49.1954 0.352 49.1954 0.352H49.2773C49.2773 0.352 62.0033 0.134288 66.5269 15.7397L66.5271 15.7399ZM57.0291 37.5008C57.3138 36.7984 59.6357 32.1543 59.6403 22.0942C59.6442 12.0347 57.3055 7.3913 57.0215 6.68818C54.8611 0.131472 49.3388 0.63888 49.3388 0.63888H49.1352C49.1352 0.63888 43.612 0.131472 41.4525 6.688C41.1678 7.39112 38.8458 12.0345 38.8412 22.094C38.8374 32.1541 41.1762 36.7983 41.4607 37.5007C43.6205 44.0567 49.1429 43.5501 49.1429 43.5501H49.3464C49.3464 43.5501 54.8695 44.0567 57.0291 37.5007V37.5008ZM159.561 40.4652C166.765 36.0529 166.909 27.3388 166.909 27.3388H167V42.9239H136.891V42.6256H140.119V1.1616H134.506V31.4026C134.506 44.4192 123.892 43.9982 122.129 43.9982C108.334 43.9982 107.786 35.1828 107.786 31.3405V1.18747H104.463V0.889152H118.404V1.19187H115.081V34.4664C115.081 36.9948 115.639 38.1899 115.965 38.925C118.381 43.8432 122.944 43.4987 123.478 43.4987C131.988 43.4987 134.181 36.9609 134.181 30.7509V1.19046H130.835V0.88H165.733V14.3011H165.602C165.602 10.2795 162.776 6.63485 162.307 6.01392C159.185 1.32598 153.037 1.15491 153.037 1.15491H147.404V21.1827C152.497 21.1827 153.577 19.8491 153.999 19.5281C157.707 16.5174 157.003 12.4951 157.003 12.4951H157.285V30.3533H156.979C156.979 25.4806 153.882 23.4376 153.061 22.7682C151.183 21.2288 147.405 21.5046 147.405 21.5046V42.6173H152.051C156.651 42.3863 159.209 40.6711 159.561 40.4652H159.561ZM20.0564 43.648L3.70042 1.17762H0V0.88H14.4668L14.4645 1.18448H10.9605L23.1665 31.9088L32.3059 1.18976H28.9327V0.882288H35.9367V1.18976H32.6309L20.0564 43.648ZM93.9639 1.89499C98.0734 2.838 99.4381 0 99.4381 0V15.0728C97.9161 8.26144 93.6699 3.82994 93.2968 3.39398C91.3164 1.1697 89.29 0.458656 87.0304 0.458656C82.0028 0.573408 80.4424 5.41218 80.0931 6.19186C77.996 11.3744 77.973 19.7454 77.973 20.4783C77.7866 28.7804 79.3477 34.7896 79.6033 35.7748C80.955 40.9573 83.2379 42.2645 83.611 42.5394C86.7042 44.3967 90.2196 43.1189 90.641 42.9753C95.3241 41.0495 95.2073 35.6374 95.2073 35.6374V26.1663H92.0626V25.8217H104.992V26.1429H102.15V43.0441C99.9134 39.2142 95.4407 41.4394 94.6256 41.7831C90.1751 43.8926 88.7075 43.7332 88.148 43.7786C82.4457 44.2591 78.4851 40.7743 78.1597 40.4994C71.0305 34.5131 70.285 26.0973 70.2381 25.4098C69.3062 15.2965 73.8258 9.17259 74.0354 8.82886C79.9534 0.413248 85.5628 0.160864 86.5414 0.114928C89.2663 -0.114928 92.9859 1.70298 93.9639 1.89499Z" fill="#4F4F4F"/>
</svg>
